# xmcd CD database file
#
# Track frame offsets:
#	182
#	11972
#	24022
#	35852
#	50985
#	62640
#	74050
#	87972
#	101387
#	111960
#	124020
#	136982
#	149985
#	164550
#	175330
#	185910
#
# Disc length: 2669 seconds
#
# Revision: 0
# Processed by: cddbd v1.5.2PL0 Copyright (c) Steve Scherf et al.
# Submitted via: CDex 1.51
#
DISCID=fc0a6b10
DTITLE=Tommy Dorsey - jazz tribune vol.3
DYEAR=1937
DGENRE=Jazz
TTITLE0=posin
TTITLE1=that stolen melody
TTITLE2=allyou want to do is dance
TTITLE3=after you
TTITLE4=stardust on the moon
TTITLE5=night and day
TTITLE6=smoke gets in your eyes
TTITLE7=canadian capers
TTITLE8=good bye jonah
TTITLE9=the big apple
TTITLE10=the lady is a tramp
TTITLE11=tears in my heart
TTITLE12=if the man in the moon where a coon
TTITLE13=getting some fun out the life
TTITLE14=nice work if you can get it
TTITLE15=who ?
EXTD=YEAR: 1937
EXTT0=
EXTT1=
EXTT2=
EXTT3=
EXTT4=
EXTT5=
EXTT6=
EXTT7=
EXTT8=
EXTT9=
EXTT10=
EXTT11=
EXTT12=
EXTT13=
EXTT14=
EXTT15=
PLAYORDER=
